<mxfile host="app.diagrams.net" agent="Mozilla/5.0 (Macintosh; Intel Mac OS X 10_15_7) AppleWebKit/605.1.15 (KHTML, like Gecko) Version/18.5 Safari/605.1.15" version="27.1.4">
  <diagram name="Page-1" id="zzZAbnEu44NaERsusPY5">
    <mxGraphModel dx="1675" dy="1731" grid="1" gridSize="10" guides="1" tooltips="1" connect="1" arrows="1" fold="1" page="1" pageScale="1" pageWidth="827" pageHeight="1169" math="0" shadow="0">
      <root>
        <mxCell id="0" />
        <mxCell id="1" parent="0" />
        <mxCell id="bz0ETZkulSQIzDmUleJr-12" value="PERSON" style="text;html=1;align=center;verticalAlign=middle;whiteSpace=wrap;rounded=0;" parent="1" vertex="1">
          <mxGeometry x="40" y="10" width="60" height="30" as="geometry" />
        </mxCell>
        <mxCell id="bz0ETZkulSQIzDmUleJr-13" value="" style="group" parent="1" vertex="1" connectable="0">
          <mxGeometry x="40" y="40" width="730" height="40" as="geometry" />
        </mxCell>
        <mxCell id="bz0ETZkulSQIzDmUleJr-5" value="&lt;u&gt;person_id&lt;/u&gt;" style="rounded=0;whiteSpace=wrap;html=1;" parent="bz0ETZkulSQIzDmUleJr-13" vertex="1">
          <mxGeometry width="104.28571428571429" height="40" as="geometry" />
        </mxCell>
        <mxCell id="bz0ETZkulSQIzDmUleJr-6" value="name" style="rounded=0;whiteSpace=wrap;html=1;" parent="bz0ETZkulSQIzDmUleJr-13" vertex="1">
          <mxGeometry x="104.28571428571429" width="104.28571428571429" height="40" as="geometry" />
        </mxCell>
        <mxCell id="bz0ETZkulSQIzDmUleJr-7" value="email" style="rounded=0;whiteSpace=wrap;html=1;" parent="bz0ETZkulSQIzDmUleJr-13" vertex="1">
          <mxGeometry x="208.57142857142858" width="104.28571428571429" height="40" as="geometry" />
        </mxCell>
        <mxCell id="bz0ETZkulSQIzDmUleJr-8" value="phone" style="rounded=0;whiteSpace=wrap;html=1;" parent="bz0ETZkulSQIzDmUleJr-13" vertex="1">
          <mxGeometry x="312.85714285714283" width="104.28571428571429" height="40" as="geometry" />
        </mxCell>
        <mxCell id="bz0ETZkulSQIzDmUleJr-9" value="date_of_birth" style="rounded=0;whiteSpace=wrap;html=1;" parent="bz0ETZkulSQIzDmUleJr-13" vertex="1">
          <mxGeometry x="417.14285714285717" width="104.28571428571429" height="40" as="geometry" />
        </mxCell>
        <mxCell id="bz0ETZkulSQIzDmUleJr-10" value="age" style="rounded=0;whiteSpace=wrap;html=1;" parent="bz0ETZkulSQIzDmUleJr-13" vertex="1">
          <mxGeometry x="521.4285714285714" width="104.28571428571429" height="40" as="geometry" />
        </mxCell>
        <mxCell id="bz0ETZkulSQIzDmUleJr-11" value="address" style="rounded=0;whiteSpace=wrap;html=1;" parent="bz0ETZkulSQIzDmUleJr-13" vertex="1">
          <mxGeometry x="625.7142857142857" width="104.28571428571429" height="40" as="geometry" />
        </mxCell>
        <mxCell id="bz0ETZkulSQIzDmUleJr-14" value="INSTRUCTOR" style="text;html=1;align=center;verticalAlign=middle;whiteSpace=wrap;rounded=0;" parent="1" vertex="1">
          <mxGeometry x="50" y="170" width="60" height="30" as="geometry" />
        </mxCell>
        <mxCell id="bz0ETZkulSQIzDmUleJr-17" value="&lt;u&gt;instructor_id&lt;/u&gt;" style="rounded=0;whiteSpace=wrap;html=1;" parent="1" vertex="1">
          <mxGeometry x="144.28571428571428" y="200" width="104.28571428571429" height="40" as="geometry" />
        </mxCell>
        <mxCell id="bz0ETZkulSQIzDmUleJr-18" value="specialization" style="rounded=0;whiteSpace=wrap;html=1;" parent="1" vertex="1">
          <mxGeometry x="248.57142857142858" y="200" width="104.28571428571429" height="40" as="geometry" />
        </mxCell>
        <mxCell id="bz0ETZkulSQIzDmUleJr-23" value="" style="endArrow=classic;html=1;rounded=0;exitX=0;exitY=0.5;exitDx=0;exitDy=0;entryX=0.5;entryY=1;entryDx=0;entryDy=0;" parent="1" target="bz0ETZkulSQIzDmUleJr-5" edge="1">
          <mxGeometry width="50" height="50" relative="1" as="geometry">
            <mxPoint x="40" y="220" as="sourcePoint" />
            <mxPoint x="100" y="100" as="targetPoint" />
            <Array as="points">
              <mxPoint y="220" />
              <mxPoint y="160" />
              <mxPoint y="100" />
              <mxPoint x="92" y="100" />
            </Array>
          </mxGeometry>
        </mxCell>
        <mxCell id="bz0ETZkulSQIzDmUleJr-24" value="LIFEGUARD" style="text;html=1;align=center;verticalAlign=middle;whiteSpace=wrap;rounded=0;" parent="1" vertex="1">
          <mxGeometry x="424" y="170" width="60" height="30" as="geometry" />
        </mxCell>
        <mxCell id="bz0ETZkulSQIzDmUleJr-26" value="&lt;u&gt;lifeguard_id&lt;/u&gt;" style="rounded=0;whiteSpace=wrap;html=1;" parent="1" vertex="1">
          <mxGeometry x="518.2857142857142" y="200" width="104.28571428571429" height="40" as="geometry" />
        </mxCell>
        <mxCell id="bz0ETZkulSQIzDmUleJr-28" value="" style="endArrow=classic;html=1;rounded=0;exitX=0;exitY=0.5;exitDx=0;exitDy=0;entryX=0.75;entryY=1;entryDx=0;entryDy=0;" parent="1" target="bz0ETZkulSQIzDmUleJr-5" edge="1">
          <mxGeometry width="50" height="50" relative="1" as="geometry">
            <mxPoint x="414" y="220" as="sourcePoint" />
            <mxPoint x="380" y="140" as="targetPoint" />
            <Array as="points">
              <mxPoint x="380" y="220" />
              <mxPoint x="380" y="100" />
              <mxPoint x="118" y="100" />
            </Array>
          </mxGeometry>
        </mxCell>
        <mxCell id="bz0ETZkulSQIzDmUleJr-29" value="USER" style="text;html=1;align=center;verticalAlign=middle;whiteSpace=wrap;rounded=0;" parent="1" vertex="1">
          <mxGeometry x="-808.58" y="170" width="60" height="30" as="geometry" />
        </mxCell>
        <mxCell id="bz0ETZkulSQIzDmUleJr-31" value="&lt;u&gt;user_id&lt;/u&gt;" style="rounded=0;whiteSpace=wrap;html=1;" parent="1" vertex="1">
          <mxGeometry x="-495.7142857142857" y="200" width="104.28571428571429" height="40" as="geometry" />
        </mxCell>
        <mxCell id="bz0ETZkulSQIzDmUleJr-32" value="registration_date" style="rounded=0;whiteSpace=wrap;html=1;" parent="1" vertex="1">
          <mxGeometry x="-391.42857142857144" y="200" width="104.28571428571429" height="40" as="geometry" />
        </mxCell>
        <mxCell id="bz0ETZkulSQIzDmUleJr-33" value="balance" style="rounded=0;whiteSpace=wrap;html=1;" parent="1" vertex="1">
          <mxGeometry x="-287.1385714285714" y="200" width="104.28571428571429" height="40" as="geometry" />
        </mxCell>
        <mxCell id="bz0ETZkulSQIzDmUleJr-34" value="" style="endArrow=classic;html=1;rounded=0;exitX=0.75;exitY=0;exitDx=0;exitDy=0;entryX=0;entryY=0.5;entryDx=0;entryDy=0;" parent="1" target="bz0ETZkulSQIzDmUleJr-5" edge="1">
          <mxGeometry width="50" height="50" relative="1" as="geometry">
            <mxPoint x="-521.7857142857142" y="200" as="sourcePoint" />
            <mxPoint x="110" y="150" as="targetPoint" />
            <Array as="points">
              <mxPoint x="-522" y="60" />
            </Array>
          </mxGeometry>
        </mxCell>
        <mxCell id="bz0ETZkulSQIzDmUleJr-35" value="BOOKING" style="text;html=1;align=center;verticalAlign=middle;whiteSpace=wrap;rounded=0;" parent="1" vertex="1">
          <mxGeometry x="50" y="-150" width="60" height="30" as="geometry" />
        </mxCell>
        <mxCell id="bz0ETZkulSQIzDmUleJr-36" value="&lt;u&gt;booking_id&lt;/u&gt;" style="rounded=0;whiteSpace=wrap;html=1;" parent="1" vertex="1">
          <mxGeometry x="40" y="-120" width="104.28571428571429" height="40" as="geometry" />
        </mxCell>
        <mxCell id="bz0ETZkulSQIzDmUleJr-37" value="status" style="rounded=0;whiteSpace=wrap;html=1;" parent="1" vertex="1">
          <mxGeometry x="144.28571428571428" y="-120" width="104.28571428571429" height="40" as="geometry" />
        </mxCell>
        <mxCell id="bz0ETZkulSQIzDmUleJr-38" value="booking_date&lt;span style=&quot;caret-color: rgba(0, 0, 0, 0); color: rgba(0, 0, 0, 0); font-family: monospace; font-size: 0px; text-align: start; white-space: nowrap;&quot;&gt;%3CmxGraphModel%3E%3Croot%3E%3CmxCell%20id%3D%220%22%2F%3E%3CmxCell%20id%3D%221%22%20parent%3D%220%22%2F%3E%3CmxCell%20id%3D%222%22%20value%3D%22%22%20style%3D%22endArrow%3Dnone%3Bdashed%3D1%3Bhtml%3D1%3Brounded%3D0%3BexitX%3D0.5%3BexitY%3D1%3BexitDx%3D0%3BexitDy%3D0%3BentryX%3D0.5%3BentryY%3D0%3BentryDx%3D0%3BentryDy%3D0%3B%22%20edge%3D%221%22%20target%3D%223%22%20parent%3D%221%22%3E%3CmxGeometry%20width%3D%2250%22%20height%3D%2250%22%20relative%3D%221%22%20as%3D%22geometry%22%3E%3CmxPoint%20x%3D%22-180%22%20y%3D%22942%22%20as%3D%22sourcePoint%22%2F%3E%3CmxPoint%20x%3D%22-50%22%20y%3D%22906.72%22%20as%3D%22targetPoint%22%2F%3E%3C%2FmxGeometry%3E%3C%2FmxCell%3E%3CmxCell%20id%3D%223%22%20value%3D%22Free%2C%20Full%2C%20Under%20maintenance%26amp%3Bnbsp%3B%22%20style%3D%22rounded%3D1%3BwhiteSpace%3Dwrap%3Bhtml%3D1%3B%22%20vertex%3D%221%22%20parent%3D%221%22%3E%3CmxGeometry%20x%3D%22-240%22%20y%3D%22986.72%22%20width%3D%22120%22%20height%3D%2260%22%20as%3D%22geometry%22%2F%3E%3C%2FmxCell%3E%3C%2Froot%3E%3C%2FmxGraphModel%3E&lt;/span&gt;" style="rounded=0;whiteSpace=wrap;html=1;" parent="1" vertex="1">
          <mxGeometry x="248.57142857142856" y="-120" width="104.28571428571429" height="40" as="geometry" />
        </mxCell>
        <mxCell id="bz0ETZkulSQIzDmUleJr-39" value="user_id" style="rounded=0;whiteSpace=wrap;html=1;" parent="1" vertex="1">
          <mxGeometry x="352.8614285714286" y="-120" width="104.28571428571429" height="40" as="geometry" />
        </mxCell>
        <mxCell id="bz0ETZkulSQIzDmUleJr-40" value="" style="endArrow=classic;html=1;rounded=0;exitX=0.5;exitY=1;exitDx=0;exitDy=0;entryX=0.5;entryY=0;entryDx=0;entryDy=0;" parent="1" source="bz0ETZkulSQIzDmUleJr-39" target="bz0ETZkulSQIzDmUleJr-31" edge="1">
          <mxGeometry width="50" height="50" relative="1" as="geometry">
            <mxPoint x="320" y="140" as="sourcePoint" />
            <mxPoint x="-440" as="targetPoint" />
            <Array as="points">
              <mxPoint x="405" />
              <mxPoint x="118" />
              <mxPoint x="-444" />
            </Array>
          </mxGeometry>
        </mxCell>
        <mxCell id="bz0ETZkulSQIzDmUleJr-41" value="HAS" style="text;html=1;align=center;verticalAlign=middle;whiteSpace=wrap;rounded=0;" parent="1" vertex="1">
          <mxGeometry x="50" y="-270" width="60" height="30" as="geometry" />
        </mxCell>
        <mxCell id="bz0ETZkulSQIzDmUleJr-42" value="&lt;u&gt;booking_id&lt;/u&gt;" style="rounded=0;whiteSpace=wrap;html=1;" parent="1" vertex="1">
          <mxGeometry x="40" y="-240" width="104.28571428571429" height="40" as="geometry" />
        </mxCell>
        <mxCell id="bz0ETZkulSQIzDmUleJr-43" value="&lt;u&gt;session_id&lt;/u&gt;" style="rounded=0;whiteSpace=wrap;html=1;" parent="1" vertex="1">
          <mxGeometry x="144.28571428571428" y="-240" width="104.28571428571429" height="40" as="geometry" />
        </mxCell>
        <mxCell id="bz0ETZkulSQIzDmUleJr-46" value="" style="endArrow=classic;html=1;rounded=0;exitX=0.75;exitY=1;exitDx=0;exitDy=0;entryX=0.75;entryY=0;entryDx=0;entryDy=0;" parent="1" source="bz0ETZkulSQIzDmUleJr-42" target="bz0ETZkulSQIzDmUleJr-36" edge="1">
          <mxGeometry width="50" height="50" relative="1" as="geometry">
            <mxPoint x="320" y="-30" as="sourcePoint" />
            <mxPoint x="370" y="-80" as="targetPoint" />
          </mxGeometry>
        </mxCell>
        <mxCell id="bz0ETZkulSQIzDmUleJr-53" value="SESSION" style="text;html=1;align=center;verticalAlign=middle;whiteSpace=wrap;rounded=0;" parent="1" vertex="1">
          <mxGeometry x="40" y="-390" width="60" height="30" as="geometry" />
        </mxCell>
        <mxCell id="bz0ETZkulSQIzDmUleJr-55" value="&lt;u&gt;session_id&lt;/u&gt;" style="rounded=0;whiteSpace=wrap;html=1;" parent="1" vertex="1">
          <mxGeometry x="40" y="-360" width="104.28571428571429" height="40" as="geometry" />
        </mxCell>
        <mxCell id="bz0ETZkulSQIzDmUleJr-56" value="duration" style="rounded=0;whiteSpace=wrap;html=1;" parent="1" vertex="1">
          <mxGeometry x="144.28571428571428" y="-360" width="104.28571428571429" height="40" as="geometry" />
        </mxCell>
        <mxCell id="bz0ETZkulSQIzDmUleJr-57" value="date_time" style="rounded=0;whiteSpace=wrap;html=1;" parent="1" vertex="1">
          <mxGeometry x="248.57142857142858" y="-360" width="104.28571428571429" height="40" as="geometry" />
        </mxCell>
        <mxCell id="bz0ETZkulSQIzDmUleJr-58" value="stype" style="rounded=0;whiteSpace=wrap;html=1;" parent="1" vertex="1">
          <mxGeometry x="352.85714285714283" y="-360" width="104.28571428571429" height="40" as="geometry" />
        </mxCell>
        <mxCell id="bz0ETZkulSQIzDmUleJr-59" value="max_capacity" style="rounded=0;whiteSpace=wrap;html=1;" parent="1" vertex="1">
          <mxGeometry x="457.14285714285717" y="-360" width="104.28571428571429" height="40" as="geometry" />
        </mxCell>
        <mxCell id="bz0ETZkulSQIzDmUleJr-62" value="" style="endArrow=classic;html=1;rounded=0;exitX=0.5;exitY=0;exitDx=0;exitDy=0;entryX=0.5;entryY=1;entryDx=0;entryDy=0;" parent="1" source="bz0ETZkulSQIzDmUleJr-43" target="bz0ETZkulSQIzDmUleJr-55" edge="1">
          <mxGeometry width="50" height="50" relative="1" as="geometry">
            <mxPoint x="320" y="-90" as="sourcePoint" />
            <mxPoint x="370" y="-140" as="targetPoint" />
            <Array as="points">
              <mxPoint x="196" y="-280" />
              <mxPoint x="92" y="-280" />
            </Array>
          </mxGeometry>
        </mxCell>
        <mxCell id="bz0ETZkulSQIzDmUleJr-63" value="instructor_id" style="rounded=0;whiteSpace=wrap;html=1;" parent="1" vertex="1">
          <mxGeometry x="561.4328571428572" y="-360" width="104.28571428571429" height="40" as="geometry" />
        </mxCell>
        <mxCell id="bz0ETZkulSQIzDmUleJr-64" value="lane_number" style="rounded=0;whiteSpace=wrap;html=1;" parent="1" vertex="1">
          <mxGeometry x="665.7228571428572" y="-360" width="104.28571428571429" height="40" as="geometry" />
        </mxCell>
        <mxCell id="bz0ETZkulSQIzDmUleJr-65" value="pool_id" style="rounded=0;whiteSpace=wrap;html=1;" parent="1" vertex="1">
          <mxGeometry x="770.0028571428571" y="-360" width="104.28571428571429" height="40" as="geometry" />
        </mxCell>
        <mxCell id="bz0ETZkulSQIzDmUleJr-66" value="" style="endArrow=classic;html=1;rounded=0;exitX=0.5;exitY=1;exitDx=0;exitDy=0;entryX=0.5;entryY=1;entryDx=0;entryDy=0;" parent="1" source="bz0ETZkulSQIzDmUleJr-63" target="bz0ETZkulSQIzDmUleJr-17" edge="1">
          <mxGeometry width="50" height="50" relative="1" as="geometry">
            <mxPoint x="250" as="sourcePoint" />
            <mxPoint x="300" y="-50" as="targetPoint" />
            <Array as="points">
              <mxPoint x="614" y="-280" />
              <mxPoint x="900" y="-280" />
              <mxPoint x="910" y="270" />
              <mxPoint x="196" y="270" />
            </Array>
          </mxGeometry>
        </mxCell>
        <mxCell id="bz0ETZkulSQIzDmUleJr-67" value="LANE" style="text;html=1;align=center;verticalAlign=middle;whiteSpace=wrap;rounded=0;" parent="1" vertex="1">
          <mxGeometry x="36.86" y="-510" width="60" height="30" as="geometry" />
        </mxCell>
        <mxCell id="bz0ETZkulSQIzDmUleJr-68" value="&lt;u&gt;lane_number&lt;/u&gt;" style="rounded=0;whiteSpace=wrap;html=1;" parent="1" vertex="1">
          <mxGeometry x="40" y="-480" width="104.28571428571429" height="40" as="geometry" />
        </mxCell>
        <mxCell id="bz0ETZkulSQIzDmUleJr-69" value="status" style="rounded=0;whiteSpace=wrap;html=1;" parent="1" vertex="1">
          <mxGeometry x="144.28571428571428" y="-480" width="104.28571428571429" height="40" as="geometry" />
        </mxCell>
        <mxCell id="bz0ETZkulSQIzDmUleJr-70" value="&lt;u&gt;pool_id&lt;/u&gt;" style="rounded=0;whiteSpace=wrap;html=1;" parent="1" vertex="1">
          <mxGeometry x="248.57142857142856" y="-480" width="104.28571428571429" height="40" as="geometry" />
        </mxCell>
        <mxCell id="bz0ETZkulSQIzDmUleJr-76" value="" style="endArrow=classic;html=1;rounded=0;exitX=0.5;exitY=0;exitDx=0;exitDy=0;entryX=0.5;entryY=1;entryDx=0;entryDy=0;" parent="1" source="bz0ETZkulSQIzDmUleJr-64" target="bz0ETZkulSQIzDmUleJr-68" edge="1">
          <mxGeometry width="50" height="50" relative="1" as="geometry">
            <mxPoint x="320" y="-280" as="sourcePoint" />
            <mxPoint x="370" y="-330" as="targetPoint" />
            <Array as="points">
              <mxPoint x="718" y="-400" />
              <mxPoint x="92" y="-400" />
            </Array>
          </mxGeometry>
        </mxCell>
        <mxCell id="bz0ETZkulSQIzDmUleJr-77" value="POOL" style="text;html=1;align=center;verticalAlign=middle;whiteSpace=wrap;rounded=0;" parent="1" vertex="1">
          <mxGeometry x="40" y="-619" width="60" height="30" as="geometry" />
        </mxCell>
        <mxCell id="bz0ETZkulSQIzDmUleJr-78" value="&lt;u&gt;pool_id&lt;/u&gt;" style="rounded=0;whiteSpace=wrap;html=1;" parent="1" vertex="1">
          <mxGeometry x="40" y="-589" width="104.28571428571429" height="40" as="geometry" />
        </mxCell>
        <mxCell id="bz0ETZkulSQIzDmUleJr-79" value="name" style="rounded=0;whiteSpace=wrap;html=1;" parent="1" vertex="1">
          <mxGeometry x="144.28571428571428" y="-589" width="104.28571428571429" height="40" as="geometry" />
        </mxCell>
        <mxCell id="bz0ETZkulSQIzDmUleJr-80" value="location" style="rounded=0;whiteSpace=wrap;html=1;" parent="1" vertex="1">
          <mxGeometry x="248.57142857142856" y="-589" width="104.28571428571429" height="40" as="geometry" />
        </mxCell>
        <mxCell id="bz0ETZkulSQIzDmUleJr-81" value="total_lanes" style="rounded=0;whiteSpace=wrap;html=1;" parent="1" vertex="1">
          <mxGeometry x="352.85714285714283" y="-589" width="104.28571428571429" height="40" as="geometry" />
        </mxCell>
        <mxCell id="bz0ETZkulSQIzDmUleJr-82" value="opening_time" style="rounded=0;whiteSpace=wrap;html=1;" parent="1" vertex="1">
          <mxGeometry x="457.14285714285717" y="-589" width="104.28571428571429" height="40" as="geometry" />
        </mxCell>
        <mxCell id="bz0ETZkulSQIzDmUleJr-83" value="closing_time" style="rounded=0;whiteSpace=wrap;html=1;" parent="1" vertex="1">
          <mxGeometry x="561.4328571428572" y="-589" width="104.28571428571429" height="40" as="geometry" />
        </mxCell>
        <mxCell id="bz0ETZkulSQIzDmUleJr-86" value="" style="endArrow=classic;html=1;rounded=0;exitX=0.5;exitY=0;exitDx=0;exitDy=0;entryX=0.25;entryY=1;entryDx=0;entryDy=0;" parent="1" source="bz0ETZkulSQIzDmUleJr-65" target="bz0ETZkulSQIzDmUleJr-78" edge="1">
          <mxGeometry width="50" height="50" relative="1" as="geometry">
            <mxPoint x="320" y="-420" as="sourcePoint" />
            <mxPoint x="370" y="-470" as="targetPoint" />
            <Array as="points">
              <mxPoint x="820" y="-520" />
              <mxPoint x="66" y="-520" />
            </Array>
          </mxGeometry>
        </mxCell>
        <mxCell id="bz0ETZkulSQIzDmUleJr-87" value="" style="endArrow=classic;html=1;rounded=0;exitX=0.5;exitY=0;exitDx=0;exitDy=0;entryX=0.75;entryY=1;entryDx=0;entryDy=0;" parent="1" source="bz0ETZkulSQIzDmUleJr-70" target="bz0ETZkulSQIzDmUleJr-78" edge="1">
          <mxGeometry width="50" height="50" relative="1" as="geometry">
            <mxPoint x="405" y="-480" as="sourcePoint" />
            <mxPoint x="370" y="-470" as="targetPoint" />
            <Array as="points">
              <mxPoint x="301" y="-510" />
              <mxPoint x="118" y="-510" />
            </Array>
          </mxGeometry>
        </mxCell>
        <mxCell id="bz0ETZkulSQIzDmUleJr-88" value="MONITORS" style="text;html=1;align=center;verticalAlign=middle;whiteSpace=wrap;rounded=0;" parent="1" vertex="1">
          <mxGeometry x="50" y="-720" width="60" height="30" as="geometry" />
        </mxCell>
        <mxCell id="bz0ETZkulSQIzDmUleJr-89" value="&lt;u&gt;pool_id&lt;/u&gt;" style="rounded=0;whiteSpace=wrap;html=1;" parent="1" vertex="1">
          <mxGeometry x="40" y="-690" width="104.28571428571429" height="40" as="geometry" />
        </mxCell>
        <mxCell id="bz0ETZkulSQIzDmUleJr-90" value="&lt;u&gt;lifeguard_id&lt;/u&gt;" style="rounded=0;whiteSpace=wrap;html=1;" parent="1" vertex="1">
          <mxGeometry x="144.28571428571428" y="-690" width="104.28571428571429" height="40" as="geometry" />
        </mxCell>
        <mxCell id="bz0ETZkulSQIzDmUleJr-91" value="" style="endArrow=classic;html=1;rounded=0;exitX=0.662;exitY=1.025;exitDx=0;exitDy=0;exitPerimeter=0;" parent="1" source="bz0ETZkulSQIzDmUleJr-89" edge="1">
          <mxGeometry width="50" height="50" relative="1" as="geometry">
            <mxPoint x="290" y="-570" as="sourcePoint" />
            <mxPoint x="109" y="-590" as="targetPoint" />
          </mxGeometry>
        </mxCell>
        <mxCell id="bz0ETZkulSQIzDmUleJr-93" value="" style="endArrow=classic;html=1;rounded=0;exitX=0.5;exitY=0;exitDx=0;exitDy=0;entryX=0.5;entryY=0;entryDx=0;entryDy=0;" parent="1" source="bz0ETZkulSQIzDmUleJr-90" target="bz0ETZkulSQIzDmUleJr-26" edge="1">
          <mxGeometry width="50" height="50" relative="1" as="geometry">
            <mxPoint x="290" y="-440" as="sourcePoint" />
            <mxPoint x="340" y="-490" as="targetPoint" />
            <Array as="points">
              <mxPoint x="196" y="-720" />
              <mxPoint x="1000" y="-720" />
              <mxPoint x="1000" y="-240" />
              <mxPoint x="1000" y="160" />
              <mxPoint x="570" y="160" />
            </Array>
          </mxGeometry>
        </mxCell>
        <mxCell id="Sbh5kkFEr5Ak6bs9mFQT-2" value="nif" style="rounded=0;whiteSpace=wrap;html=1;" parent="1" vertex="1">
          <mxGeometry x="-182.8485714285714" y="200" width="104.28571428571429" height="40" as="geometry" />
        </mxCell>
        <mxCell id="Sbh5kkFEr5Ak6bs9mFQT-3" value="Payment" style="text;html=1;align=center;verticalAlign=middle;whiteSpace=wrap;rounded=0;" parent="1" vertex="1">
          <mxGeometry x="-560" y="400" width="60" height="30" as="geometry" />
        </mxCell>
        <mxCell id="Sbh5kkFEr5Ak6bs9mFQT-4" value="&lt;u&gt;payment_id&lt;/u&gt;" style="rounded=0;whiteSpace=wrap;html=1;" parent="1" vertex="1">
          <mxGeometry x="-570" y="430" width="104.28571428571429" height="40" as="geometry" />
        </mxCell>
        <mxCell id="Sbh5kkFEr5Ak6bs9mFQT-5" value="cost" style="rounded=0;whiteSpace=wrap;html=1;" parent="1" vertex="1">
          <mxGeometry x="-465.7142857142857" y="430" width="104.28571428571429" height="40" as="geometry" />
        </mxCell>
        <mxCell id="Sbh5kkFEr5Ak6bs9mFQT-6" value="pay_time" style="rounded=0;whiteSpace=wrap;html=1;" parent="1" vertex="1">
          <mxGeometry x="-361.42857142857144" y="430" width="104.28571428571429" height="40" as="geometry" />
        </mxCell>
        <mxCell id="Sbh5kkFEr5Ak6bs9mFQT-11" style="edgeStyle=orthogonalEdgeStyle;rounded=0;orthogonalLoop=1;jettySize=auto;html=1;exitX=0.5;exitY=0;exitDx=0;exitDy=0;entryX=0.5;entryY=1;entryDx=0;entryDy=0;" parent="1" source="Sbh5kkFEr5Ak6bs9mFQT-7" target="bz0ETZkulSQIzDmUleJr-31" edge="1">
          <mxGeometry relative="1" as="geometry">
            <Array as="points">
              <mxPoint x="-205" y="310" />
              <mxPoint x="-444" y="310" />
            </Array>
          </mxGeometry>
        </mxCell>
        <mxCell id="Sbh5kkFEr5Ak6bs9mFQT-7" value="user_id" style="rounded=0;whiteSpace=wrap;html=1;" parent="1" vertex="1">
          <mxGeometry x="-257.1385714285714" y="430" width="104.28571428571429" height="40" as="geometry" />
        </mxCell>
        <mxCell id="EVM6TI1-xZxy-y3fNiR7-1" value="cc" style="rounded=0;whiteSpace=wrap;html=1;" vertex="1" parent="1">
          <mxGeometry x="770.01" y="40" width="104.28571428571429" height="40" as="geometry" />
        </mxCell>
        <mxCell id="EVM6TI1-xZxy-y3fNiR7-2" value="person_id" style="rounded=0;whiteSpace=wrap;html=1;" vertex="1" parent="1">
          <mxGeometry x="-600" y="200" width="104.28571428571429" height="40" as="geometry" />
        </mxCell>
        <mxCell id="EVM6TI1-xZxy-y3fNiR7-3" value="username&lt;span style=&quot;caret-color: rgba(0, 0, 0, 0); color: rgba(0, 0, 0, 0); font-family: monospace; font-size: 0px; text-align: start; white-space: nowrap;&quot;&gt;%3CmxGraphModel%3E%3Croot%3E%3CmxCell%20id%3D%220%22%2F%3E%3CmxCell%20id%3D%221%22%20parent%3D%220%22%2F%3E%3CmxCell%20id%3D%222%22%20value%3D%22balance%22%20style%3D%22rounded%3D0%3BwhiteSpace%3Dwrap%3Bhtml%3D1%3B%22%20vertex%3D%221%22%20parent%3D%221%22%3E%3CmxGeometry%20x%3D%22-287.1385714285714%22%20y%3D%22200%22%20width%3D%22104.28571428571429%22%20height%3D%2240%22%20as%3D%22geometry%22%2F%3E%3C%2FmxCell%3E%3C%2Froot%3E%3C%2FmxGraphModel%3E&lt;/span&gt;" style="rounded=0;whiteSpace=wrap;html=1;" vertex="1" parent="1">
          <mxGeometry x="-704.29" y="200" width="104.28571428571429" height="40" as="geometry" />
        </mxCell>
        <mxCell id="EVM6TI1-xZxy-y3fNiR7-4" value="password_hash" style="rounded=0;whiteSpace=wrap;html=1;" vertex="1" parent="1">
          <mxGeometry x="-808.58" y="200" width="104.28571428571429" height="40" as="geometry" />
        </mxCell>
        <mxCell id="EVM6TI1-xZxy-y3fNiR7-5" value="person_id" style="rounded=0;whiteSpace=wrap;html=1;" vertex="1" parent="1">
          <mxGeometry x="40" y="200" width="104.28571428571429" height="40" as="geometry" />
        </mxCell>
        <mxCell id="EVM6TI1-xZxy-y3fNiR7-6" value="person_id" style="rounded=0;whiteSpace=wrap;html=1;" vertex="1" parent="1">
          <mxGeometry x="414" y="200" width="104.28571428571429" height="40" as="geometry" />
        </mxCell>
      </root>
    </mxGraphModel>
  </diagram>
</mxfile>
